<svg width="100%" height="100%" id="svg" viewBox="0 0 1440 490" xmlns="http://www.w3.org/2000/svg" class="transition duration-300 ease-in-out delay-150"><defs><linearGradient id="gradient" x1="0%" y1="50%" x2="100%" y2="50%"><stop offset="5%" stop-color="#ffdab9"></stop><stop offset="95%" stop-color="#fdfdfd"></stop></linearGradient></defs><path d="M 0,500 C 0,500 0,166 0,166 C 113.06666666666666,179.2 226.13333333333333,192.4 404,187 C 581.8666666666667,181.6 824.5333333333333,157.6 1008,151 C 1191.4666666666667,144.4 1315.7333333333333,155.2 1440,166 C 1440,166 1440,500 1440,500 Z" stroke="none" stroke-width="0" fill="url(#gradient)" fill-opacity="0.53" class="transition-all duration-300 ease-in-out delay-150 path-0" transform="rotate(-180 720 250)"></path><defs><linearGradient id="gradient" x1="0%" y1="50%" x2="100%" y2="50%"><stop offset="5%" stop-color="#ffdab9"></stop><stop offset="95%" stop-color="#fdfdfd"></stop></linearGradient></defs><path d="M 0,500 C 0,500 0,333 0,333 C 213.59999999999997,320.4666666666667 427.19999999999993,307.93333333333334 564,294 C 700.8000000000001,280.06666666666666 760.8,264.73333333333335 894,271 C 1027.2,277.26666666666665 1233.6,305.1333333333333 1440,333 C 1440,333 1440,500 1440,500 Z" stroke="none" stroke-width="0" fill="url(#gradient)" fill-opacity="1" class="transition-all duration-300 ease-in-out delay-150 path-1" transform="rotate(-180 720 250)"></path></svg>