<svg width="100%" height="100%" id="svg" viewBox="0 0 1440 490" xmlns="http://www.w3.org/2000/svg" class="transition duration-300 ease-in-out delay-150"><defs><linearGradient id="gradient" x1="100%" y1="50%" x2="0%" y2="50%"><stop offset="5%" stop-color="#6e6bee"></stop><stop offset="95%" stop-color="#fdfdfd"></stop></linearGradient></defs><path d="M 0,500 C 0,500 0,166 0,166 C 157.7333333333333,166.26666666666665 315.4666666666666,166.53333333333333 485,156 C 654.5333333333334,145.46666666666667 835.8666666666668,124.13333333333335 997,124 C 1158.1333333333332,123.86666666666665 1299.0666666666666,144.93333333333334 1440,166 C 1440,166 1440,500 1440,500 Z" stroke="none" stroke-width="0" fill="url(#gradient)" fill-opacity="0.53" class="transition-all duration-300 ease-in-out delay-150 path-0" transform="rotate(-180 720 250)"></path><defs><linearGradient id="gradient" x1="100%" y1="50%" x2="0%" y2="50%"><stop offset="5%" stop-color="#6e6bee"></stop><stop offset="95%" stop-color="#fdfdfd"></stop></linearGradient></defs><path d="M 0,500 C 0,500 0,333 0,333 C 178.2666666666667,351.4 356.5333333333334,369.8 532,368 C 707.4666666666666,366.2 880.1333333333332,344.2 1031,335 C 1181.8666666666668,325.8 1310.9333333333334,329.4 1440,333 C 1440,333 1440,500 1440,500 Z" stroke="none" stroke-width="0" fill="url(#gradient)" fill-opacity="1" class="transition-all duration-300 ease-in-out delay-150 path-1" transform="rotate(-180 720 250)"></path></svg>