<svg xmlns="http://www.w3.org/2000/svg" xmlns:xlink="http://www.w3.org/1999/xlink" width="592" zoomAndPan="magnify" viewBox="0 0 444 205.499994" height="274" preserveAspectRatio="xMidYMid meet" version="1.0"><defs><clipPath id="8bf47655cd"><path d="M 0.585938 69.160156 L 136.8125 69.160156 L 136.8125 154.304688 L 0.585938 154.304688 Z M 0.585938 69.160156 " clip-rule="nonzero"/></clipPath><clipPath id="a95c7365ce"><path d="M 326 69.160156 L 441 69.160156 L 441 116 L 326 116 Z M 326 69.160156 " clip-rule="nonzero"/></clipPath><clipPath id="6f1f511532"><path d="M 324.035156 83 L 443.234375 83 L 443.234375 154.304688 L 324.035156 154.304688 Z M 324.035156 83 " clip-rule="nonzero"/></clipPath><clipPath id="383eca858e"><path d="M 294 122 L 383.207031 122 L 383.207031 188 L 294 188 Z M 294 122 " clip-rule="nonzero"/></clipPath></defs><g clip-path="url(#8bf47655cd)"><path fill="#ffdab9" d="M 133.972656 69.160156 L 3.425781 69.160156 C 3.046875 69.160156 2.6875 69.234375 2.339844 69.378906 C 1.992188 69.523438 1.683594 69.726562 1.417969 69.992188 C 1.152344 70.257812 0.945312 70.566406 0.800781 70.914062 C 0.65625 71.261719 0.585938 71.625 0.585938 72 L 0.585938 151.464844 C 0.585938 151.839844 0.65625 152.203125 0.800781 152.550781 C 0.945312 152.898438 1.152344 153.207031 1.417969 153.472656 C 1.683594 153.738281 1.992188 153.941406 2.339844 154.085938 C 2.6875 154.230469 3.046875 154.304688 3.425781 154.304688 L 20.453125 154.304688 C 20.828125 154.304688 21.191406 154.230469 21.539062 154.085938 C 21.886719 153.941406 22.191406 153.738281 22.457031 153.472656 C 22.726562 153.207031 22.929688 152.898438 23.074219 152.550781 C 23.21875 152.203125 23.289062 151.839844 23.289062 151.464844 C 23.320312 150.960938 23.476562 150.5 23.761719 150.082031 C 24.027344 149.632812 24.160156 149.148438 24.160156 148.628906 C 24.160156 148.105469 24.027344 147.621094 23.761719 147.175781 C 23.476562 146.753906 23.320312 146.292969 23.289062 145.789062 C 23.289062 145.414062 23.363281 145.050781 23.507812 144.703125 C 23.648438 144.355469 23.855469 144.046875 24.121094 143.78125 C 24.386719 143.515625 24.695312 143.3125 25.042969 143.167969 C 25.390625 143.023438 25.75 142.949219 26.128906 142.949219 C 26.503906 142.949219 26.867188 143.023438 27.214844 143.167969 C 27.5625 143.3125 27.867188 143.515625 28.132812 143.78125 C 28.402344 144.046875 28.605469 144.355469 28.75 144.703125 C 28.894531 145.050781 28.964844 145.414062 28.964844 145.789062 C 28.9375 146.292969 28.78125 146.753906 28.496094 147.175781 C 28.226562 147.621094 28.09375 148.105469 28.09375 148.628906 C 28.09375 149.148438 28.226562 149.632812 28.496094 150.082031 C 28.78125 150.5 28.9375 150.960938 28.964844 151.464844 C 28.964844 151.839844 29.039062 152.203125 29.183594 152.550781 C 29.324219 152.898438 29.53125 153.207031 29.796875 153.472656 C 30.0625 153.738281 30.371094 153.941406 30.71875 154.085938 C 31.066406 154.230469 31.425781 154.304688 31.804688 154.304688 L 48.832031 154.304688 C 49.207031 154.304688 49.570312 154.230469 49.917969 154.085938 C 50.265625 153.941406 50.570312 153.738281 50.839844 153.472656 C 51.105469 153.207031 51.308594 152.898438 51.453125 152.550781 C 51.597656 152.203125 51.667969 151.839844 51.667969 151.464844 C 51.699219 150.960938 51.855469 150.5 52.140625 150.082031 C 52.40625 149.632812 52.539062 149.148438 52.539062 148.628906 C 52.539062 148.105469 52.40625 147.621094 52.140625 147.175781 C 51.855469 146.753906 51.699219 146.292969 51.667969 145.789062 C 51.667969 145.414062 51.742188 145.050781 51.886719 144.703125 C 52.03125 144.355469 52.234375 144.046875 52.5 143.78125 C 52.765625 143.515625 53.074219 143.3125 53.421875 143.167969 C 53.769531 143.023438 54.132812 142.949219 54.507812 142.949219 C 54.882812 142.949219 55.246094 143.023438 55.59375 143.167969 C 55.941406 143.3125 56.25 143.515625 56.515625 143.78125 C 56.78125 144.046875 56.984375 144.355469 57.128906 144.703125 C 57.273438 145.050781 57.34375 145.414062 57.34375 145.789062 C 57.316406 146.292969 57.160156 146.753906 56.875 147.175781 C 56.609375 147.621094 56.472656 148.105469 56.472656 148.628906 C 56.472656 149.148438 56.609375 149.632812 56.875 150.082031 C 57.160156 150.5 57.316406 150.960938 57.34375 151.464844 C 57.34375 151.839844 57.417969 152.203125 57.5625 152.550781 C 57.707031 152.898438 57.910156 153.207031 58.175781 153.472656 C 58.441406 153.738281 58.75 153.941406 59.097656 154.085938 C 59.445312 154.230469 59.808594 154.304688 60.183594 154.304688 L 77.210938 154.304688 C 77.585938 154.304688 77.949219 154.230469 78.296875 154.085938 C 78.644531 153.941406 78.953125 153.738281 79.21875 153.472656 C 79.484375 153.207031 79.6875 152.898438 79.832031 152.550781 C 79.976562 152.203125 80.050781 151.839844 80.050781 151.464844 C 80.078125 150.960938 80.234375 150.5 80.519531 150.082031 C 80.789062 149.632812 80.921875 149.148438 80.921875 148.628906 C 80.921875 148.105469 80.789062 147.621094 80.519531 147.175781 C 80.234375 146.753906 80.078125 146.292969 80.050781 145.789062 C 80.050781 145.414062 80.121094 145.050781 80.265625 144.703125 C 80.410156 144.355469 80.613281 144.046875 80.878906 143.78125 C 81.148438 143.515625 81.453125 143.3125 81.800781 143.167969 C 82.148438 143.023438 82.511719 142.949219 82.886719 142.949219 C 83.261719 142.949219 83.625 143.023438 83.972656 143.167969 C 84.320312 143.3125 84.628906 143.515625 84.894531 143.78125 C 85.160156 144.046875 85.367188 144.355469 85.507812 144.703125 C 85.652344 145.050781 85.726562 145.414062 85.726562 145.789062 C 85.695312 146.292969 85.539062 146.753906 85.253906 147.175781 C 84.988281 147.621094 84.855469 148.105469 84.855469 148.628906 C 84.855469 149.148438 84.988281 149.632812 85.253906 150.082031 C 85.539062 150.5 85.695312 150.960938 85.726562 151.464844 C 85.726562 151.839844 85.796875 152.203125 85.941406 152.550781 C 86.085938 152.898438 86.289062 153.207031 86.554688 153.472656 C 86.824219 153.738281 87.128906 153.941406 87.476562 154.085938 C 87.824219 154.230469 88.1875 154.304688 88.5625 154.304688 L 105.589844 154.304688 C 105.96875 154.304688 106.328125 154.230469 106.675781 154.085938 C 107.023438 153.941406 107.332031 153.738281 107.597656 153.472656 C 107.863281 153.207031 108.070312 152.898438 108.214844 152.550781 C 108.355469 152.203125 108.429688 151.839844 108.429688 151.464844 C 108.457031 150.960938 108.617188 150.5 108.898438 150.082031 C 109.167969 149.632812 109.300781 149.148438 109.300781 148.628906 C 109.300781 148.105469 109.167969 147.621094 108.898438 147.175781 C 108.617188 146.753906 108.457031 146.292969 108.429688 145.789062 C 108.429688 145.414062 108.5 145.050781 108.644531 144.703125 C 108.789062 144.355469 108.996094 144.046875 109.261719 143.78125 C 109.527344 143.515625 109.832031 143.3125 110.179688 143.167969 C 110.527344 143.023438 110.890625 142.949219 111.265625 142.949219 C 111.644531 142.949219 112.003906 143.023438 112.351562 143.167969 C 112.699219 143.3125 113.007812 143.515625 113.273438 143.78125 C 113.539062 144.046875 113.746094 144.355469 113.890625 144.703125 C 114.03125 145.050781 114.105469 145.414062 114.105469 145.789062 C 114.074219 146.292969 113.917969 146.753906 113.632812 147.175781 C 113.367188 147.621094 113.234375 148.105469 113.234375 148.628906 C 113.234375 149.148438 113.367188 149.632812 113.632812 150.082031 C 113.917969 150.5 114.074219 150.960938 114.105469 151.464844 C 114.105469 151.839844 114.175781 152.203125 114.320312 152.550781 C 114.464844 152.898438 114.671875 153.207031 114.9375 153.472656 C 115.203125 153.738281 115.507812 153.941406 115.855469 154.085938 C 116.203125 154.230469 116.566406 154.304688 116.941406 154.304688 L 133.972656 154.304688 C 134.347656 154.304688 134.710938 154.230469 135.058594 154.085938 C 135.40625 153.941406 135.710938 153.738281 135.976562 153.472656 C 136.242188 153.207031 136.449219 152.898438 136.59375 152.550781 C 136.738281 152.203125 136.808594 151.839844 136.808594 151.464844 L 136.808594 72 C 136.808594 71.625 136.738281 71.261719 136.59375 70.914062 C 136.449219 70.566406 136.242188 70.257812 135.976562 69.992188 C 135.710938 69.726562 135.40625 69.523438 135.058594 69.378906 C 134.710938 69.234375 134.347656 69.160156 133.972656 69.160156 Z M 133.972656 69.160156 " fill-opacity="1" fill-rule="nonzero"/></g><path fill="#fdfdfd" d="M 48.832031 94.703125 C 48.832031 95.449219 48.757812 96.1875 48.613281 96.917969 C 48.46875 97.648438 48.253906 98.359375 47.96875 99.046875 C 47.683594 99.738281 47.332031 100.390625 46.917969 101.011719 C 46.503906 101.628906 46.035156 102.203125 45.507812 102.730469 C 44.980469 103.257812 44.40625 103.730469 43.785156 104.144531 C 43.167969 104.558594 42.511719 104.90625 41.824219 105.191406 C 41.136719 105.476562 40.425781 105.691406 39.695312 105.839844 C 38.964844 105.984375 38.226562 106.054688 37.480469 106.054688 C 36.734375 106.054688 35.996094 105.984375 35.265625 105.839844 C 34.535156 105.691406 33.824219 105.476562 33.136719 105.191406 C 32.445312 104.90625 31.792969 104.558594 31.171875 104.144531 C 30.554688 103.730469 29.980469 103.257812 29.453125 102.730469 C 28.925781 102.203125 28.457031 101.628906 28.039062 101.011719 C 27.625 100.390625 27.277344 99.738281 26.992188 99.046875 C 26.707031 98.359375 26.492188 97.648438 26.347656 96.917969 C 26.199219 96.1875 26.128906 95.449219 26.128906 94.703125 C 26.128906 93.957031 26.199219 93.21875 26.347656 92.488281 C 26.492188 91.757812 26.707031 91.046875 26.992188 90.359375 C 27.277344 89.671875 27.625 89.015625 28.039062 88.398438 C 28.457031 87.777344 28.925781 87.203125 29.453125 86.675781 C 29.980469 86.148438 30.554688 85.679688 31.171875 85.265625 C 31.792969 84.851562 32.445312 84.5 33.136719 84.214844 C 33.824219 83.929688 34.535156 83.714844 35.265625 83.570312 C 35.996094 83.425781 36.734375 83.351562 37.480469 83.351562 C 38.226562 83.351562 38.964844 83.425781 39.695312 83.570312 C 40.425781 83.714844 41.136719 83.929688 41.824219 84.214844 C 42.511719 84.5 43.167969 84.851562 43.785156 85.265625 C 44.40625 85.679688 44.980469 86.148438 45.507812 86.675781 C 46.035156 87.203125 46.503906 87.777344 46.917969 88.398438 C 47.332031 89.015625 47.683594 89.671875 47.96875 90.359375 C 48.253906 91.046875 48.46875 91.757812 48.613281 92.488281 C 48.757812 93.21875 48.832031 93.957031 48.832031 94.703125 Z M 48.832031 94.703125 " fill-opacity="1" fill-rule="nonzero"/><path fill="#fdfdfd" d="M 60.183594 128.761719 C 60.183594 128.015625 60.148438 127.273438 60.074219 126.535156 C 60 125.796875 59.890625 125.0625 59.746094 124.332031 C 59.601562 123.601562 59.421875 122.882812 59.207031 122.171875 C 58.988281 121.457031 58.738281 120.757812 58.457031 120.070312 C 58.171875 119.386719 57.851562 118.714844 57.503906 118.058594 C 57.152344 117.402344 56.769531 116.765625 56.355469 116.148438 C 55.945312 115.527344 55.5 114.933594 55.03125 114.355469 C 54.558594 113.78125 54.058594 113.230469 53.535156 112.707031 C 53.007812 112.179688 52.457031 111.683594 51.882812 111.210938 C 51.308594 110.738281 50.710938 110.296875 50.09375 109.882812 C 49.476562 109.46875 48.839844 109.085938 48.183594 108.738281 C 47.527344 108.386719 46.855469 108.070312 46.167969 107.785156 C 45.480469 107.5 44.78125 107.25 44.070312 107.035156 C 43.359375 106.816406 42.636719 106.636719 41.910156 106.492188 C 41.179688 106.347656 40.445312 106.238281 39.707031 106.164062 C 38.964844 106.09375 38.222656 106.054688 37.480469 106.054688 C 36.734375 106.054688 35.996094 106.09375 35.253906 106.164062 C 34.515625 106.238281 33.78125 106.347656 33.050781 106.492188 C 32.320312 106.636719 31.601562 106.816406 30.890625 107.035156 C 30.175781 107.25 29.476562 107.5 28.792969 107.785156 C 28.105469 108.070312 27.433594 108.386719 26.777344 108.738281 C 26.121094 109.085938 25.484375 109.46875 24.867188 109.882812 C 24.246094 110.296875 23.652344 110.738281 23.078125 111.210938 C 22.5 111.683594 21.953125 112.179688 21.425781 112.707031 C 20.898438 113.230469 20.402344 113.78125 19.929688 114.355469 C 19.457031 114.933594 19.015625 115.527344 18.601562 116.148438 C 18.1875 116.765625 17.808594 117.402344 17.457031 118.058594 C 17.105469 118.714844 16.789062 119.386719 16.503906 120.070312 C 16.21875 120.757812 15.96875 121.457031 15.753906 122.171875 C 15.539062 122.882812 15.355469 123.601562 15.210938 124.332031 C 15.066406 125.0625 14.957031 125.796875 14.886719 126.535156 C 14.8125 127.273438 14.777344 128.015625 14.777344 128.761719 Z M 60.183594 128.761719 " fill-opacity="1" fill-rule="nonzero"/><path fill="#fdfdfd" d="M 122.617188 91.867188 L 77.210938 91.867188 C 76.835938 91.867188 76.472656 91.792969 76.125 91.648438 C 75.777344 91.507812 75.472656 91.300781 75.203125 91.035156 C 74.9375 90.769531 74.734375 90.460938 74.589844 90.113281 C 74.445312 89.765625 74.375 89.40625 74.375 89.027344 C 74.375 88.652344 74.445312 88.289062 74.589844 87.941406 C 74.734375 87.59375 74.9375 87.289062 75.203125 87.019531 C 75.472656 86.753906 75.777344 86.550781 76.125 86.40625 C 76.472656 86.261719 76.835938 86.191406 77.210938 86.191406 L 122.617188 86.191406 C 122.996094 86.191406 123.355469 86.261719 123.703125 86.40625 C 124.050781 86.550781 124.359375 86.753906 124.625 87.019531 C 124.890625 87.289062 125.097656 87.59375 125.242188 87.941406 C 125.386719 88.289062 125.457031 88.652344 125.457031 89.027344 C 125.457031 89.40625 125.386719 89.765625 125.242188 90.113281 C 125.097656 90.460938 124.890625 90.769531 124.625 91.035156 C 124.359375 91.300781 124.050781 91.507812 123.703125 91.648438 C 123.355469 91.792969 122.996094 91.867188 122.617188 91.867188 Z M 122.617188 91.867188 " fill-opacity="1" fill-rule="nonzero"/><path fill="#fdfdfd" d="M 105.589844 108.894531 L 77.210938 108.894531 C 76.835938 108.894531 76.472656 108.824219 76.125 108.679688 C 75.777344 108.535156 75.472656 108.328125 75.203125 108.0625 C 74.9375 107.796875 74.734375 107.488281 74.589844 107.140625 C 74.445312 106.792969 74.375 106.433594 74.375 106.054688 C 74.375 105.679688 74.445312 105.316406 74.589844 104.96875 C 74.734375 104.621094 74.9375 104.316406 75.203125 104.050781 C 75.472656 103.785156 75.777344 103.578125 76.125 103.433594 C 76.472656 103.289062 76.835938 103.21875 77.210938 103.21875 L 105.589844 103.21875 C 105.96875 103.21875 106.328125 103.289062 106.675781 103.433594 C 107.023438 103.578125 107.332031 103.785156 107.597656 104.050781 C 107.863281 104.316406 108.070312 104.621094 108.214844 104.96875 C 108.355469 105.316406 108.429688 105.679688 108.429688 106.054688 C 108.429688 106.433594 108.355469 106.792969 108.214844 107.140625 C 108.070312 107.488281 107.863281 107.796875 107.597656 108.0625 C 107.332031 108.328125 107.023438 108.535156 106.675781 108.679688 C 106.328125 108.824219 105.96875 108.894531 105.589844 108.894531 Z M 105.589844 108.894531 " fill-opacity="1" fill-rule="nonzero"/><path fill="#fdfdfd" d="M 122.617188 125.921875 L 77.210938 125.921875 C 76.835938 125.921875 76.472656 125.851562 76.125 125.707031 C 75.777344 125.5625 75.472656 125.359375 75.203125 125.089844 C 74.9375 124.824219 74.734375 124.519531 74.589844 124.171875 C 74.445312 123.824219 74.375 123.460938 74.375 123.085938 C 74.375 122.707031 74.445312 122.347656 74.589844 122 C 74.734375 121.652344 74.9375 121.34375 75.203125 121.078125 C 75.472656 120.8125 75.777344 120.605469 76.125 120.460938 C 76.472656 120.320312 76.835938 120.246094 77.210938 120.246094 L 122.617188 120.246094 C 122.996094 120.246094 123.355469 120.320312 123.703125 120.460938 C 124.050781 120.605469 124.359375 120.8125 124.625 121.078125 C 124.890625 121.34375 125.097656 121.652344 125.242188 122 C 125.386719 122.347656 125.457031 122.707031 125.457031 123.085938 C 125.457031 123.460938 125.386719 123.824219 125.242188 124.171875 C 125.097656 124.519531 124.890625 124.824219 124.625 125.089844 C 124.359375 125.359375 124.050781 125.5625 123.703125 125.707031 C 123.355469 125.851562 122.996094 125.921875 122.617188 125.921875 Z M 122.617188 125.921875 " fill-opacity="1" fill-rule="nonzero"/><g clip-path="url(#a95c7365ce)"><path fill="#ffdab9" d="M 375.839844 113.128906 C 376.394531 113.554688 376.980469 113.933594 377.597656 114.261719 C 378.214844 114.59375 378.851562 114.871094 379.515625 115.097656 C 380.175781 115.320312 380.851562 115.492188 381.542969 115.605469 C 382.234375 115.71875 382.929688 115.777344 383.628906 115.777344 C 384.328125 115.777344 385.019531 115.71875 385.710938 115.605469 C 386.402344 115.492188 387.078125 115.320312 387.738281 115.097656 C 388.402344 114.871094 389.042969 114.59375 389.65625 114.261719 C 390.273438 113.933594 390.859375 113.554688 391.414062 113.128906 L 440.839844 74.585938 C 440.253906 73.746094 439.574219 72.992188 438.808594 72.316406 C 438.039062 71.644531 437.199219 71.070312 436.292969 70.597656 C 435.386719 70.125 434.4375 69.769531 433.445312 69.527344 C 432.453125 69.28125 431.445312 69.160156 430.421875 69.160156 L 336.847656 69.160156 C 335.765625 69.164062 334.699219 69.300781 333.652344 69.578125 C 332.605469 69.851562 331.609375 70.253906 330.664062 70.78125 C 329.71875 71.3125 328.855469 71.949219 328.074219 72.699219 C 327.292969 73.449219 326.617188 74.285156 326.050781 75.207031 Z M 375.839844 113.128906 " fill-opacity="1" fill-rule="nonzero"/></g><g clip-path="url(#6f1f511532)"><path fill="#ffdab9" d="M 396.625 119.875 C 395.703125 120.585938 394.726562 121.214844 393.699219 121.765625 C 392.671875 122.316406 391.605469 122.777344 390.503906 123.152344 C 389.398438 123.527344 388.273438 123.8125 387.125 124 C 385.976562 124.191406 384.816406 124.285156 383.652344 124.285156 C 382.488281 124.285156 381.332031 124.191406 380.179688 124 C 379.03125 123.8125 377.90625 123.527344 376.800781 123.152344 C 375.699219 122.777344 374.632812 122.316406 373.605469 121.765625 C 372.578125 121.214844 371.605469 120.585938 370.679688 119.875 L 324.089844 84.414062 L 324.089844 141.53125 C 324.089844 142.371094 324.167969 143.199219 324.332031 144.023438 C 324.496094 144.847656 324.738281 145.644531 325.058594 146.417969 C 325.378906 147.195312 325.773438 147.929688 326.238281 148.628906 C 326.703125 149.324219 327.234375 149.96875 327.824219 150.5625 C 328.417969 151.15625 329.0625 151.683594 329.757812 152.152344 C 330.457031 152.617188 331.191406 153.011719 331.964844 153.332031 C 332.738281 153.652344 333.535156 153.894531 334.359375 154.058594 C 335.179688 154.222656 336.011719 154.304688 336.847656 154.304688 L 430.421875 154.304688 C 431.261719 154.304688 432.089844 154.222656 432.914062 154.058594 C 433.734375 153.894531 434.53125 153.652344 435.304688 153.332031 C 436.082031 153.011719 436.816406 152.617188 437.511719 152.152344 C 438.207031 151.683594 438.851562 151.15625 439.445312 150.5625 C 440.039062 149.96875 440.566406 149.324219 441.03125 148.628906 C 441.5 147.929688 441.890625 147.195312 442.210938 146.417969 C 442.53125 145.644531 442.773438 144.847656 442.9375 144.023438 C 443.101562 143.199219 443.183594 142.371094 443.183594 141.53125 L 443.183594 83.570312 Z M 396.625 119.875 " fill-opacity="1" fill-rule="nonzero"/></g><path fill="#6e6bee" d="M 212.636719 102.320312 C 243.582031 111.527344 277.136719 86.984375 276.648438 53.796875 C 273.890625 -13.019531 178.621094 -13.015625 175.867188 53.800781 C 175.867188 76.855469 191.449219 96.375 212.636719 102.320312 Z M 212.636719 102.320312 " fill-opacity="1" fill-rule="nonzero"/><path fill="#6e6bee" d="M 307.476562 183.097656 C 300.863281 144.28125 266.953125 114.660156 226.257812 114.660156 C 180.296875 114.324219 141.820312 153.941406 144.140625 198.914062 C 144.871094 201.160156 147 202.671875 149.410156 202.671875 L 303.105469 202.671875 C 312.351562 201.894531 307.78125 188.980469 307.476562 183.097656 Z M 307.476562 183.097656 " fill-opacity="1" fill-rule="nonzero"/><path fill="#6e6bee" d="M 324.070312 119.035156 C 344.359375 119.035156 360.898438 102.488281 360.898438 82.183594 C 359.046875 33.433594 289.085938 33.445312 287.242188 82.183594 C 287.242188 102.488281 303.777344 119.035156 324.070312 119.035156 Z M 324.070312 119.035156 " fill-opacity="1" fill-rule="nonzero"/><g clip-path="url(#383eca858e)"><path fill="#6e6bee" d="M 324.070312 122.964844 C 313.644531 122.964844 303.332031 125.710938 294.363281 130.929688 C 296.996094 133.675781 299.40625 136.652344 301.648438 139.734375 C 311.761719 153.390625 318.074219 170.359375 319.304688 187.695312 C 319.304688 187.695312 377.601562 187.695312 377.601562 187.695312 C 380.683594 187.695312 383.207031 185.171875 383.207031 182.085938 C 383.207031 149.496094 356.691406 122.964844 324.070312 122.964844 Z M 324.070312 122.964844 " fill-opacity="1" fill-rule="nonzero"/></g><path fill="#6e6bee" d="M 128.445312 119.035156 C 148.738281 119.035156 165.273438 102.488281 165.273438 82.183594 C 163.425781 33.433594 93.460938 33.445312 91.617188 82.183594 C 91.617188 102.488281 108.15625 119.035156 128.445312 119.035156 Z M 128.445312 119.035156 " fill-opacity="1" fill-rule="nonzero"/><path fill="#6e6bee" d="M 158.152344 130.929688 C 119.933594 107.867188 68.511719 137.351562 69.3125 182.089844 C 69.308594 185.171875 71.832031 187.695312 74.914062 187.695312 L 133.210938 187.695312 C 134.726562 166.410156 143.75 146.207031 158.152344 130.929688 Z M 158.152344 130.929688 " fill-opacity="1" fill-rule="nonzero"/></svg>