<svg xmlns="http://www.w3.org/2000/svg" xmlns:xlink="http://www.w3.org/1999/xlink" width="500" zoomAndPan="magnify" viewBox="0 0 375 374.999991" height="500" preserveAspectRatio="xMidYMid meet" version="1.0"><defs><clipPath id="19360c99d0"><path d="M 65 146 L 155 146 L 155 235.621094 L 65 235.621094 Z M 65 146 " clip-rule="nonzero"/></clipPath><clipPath id="b2a4d8e508"><path d="M 107 139.621094 L 161.617188 139.621094 L 161.617188 195 L 107 195 Z M 107 139.621094 " clip-rule="nonzero"/></clipPath><clipPath id="2a4a88e6e2"><path d="M 206 140 L 317.550781 140 L 317.550781 235.621094 L 206 235.621094 Z M 206 140 " clip-rule="nonzero"/></clipPath><clipPath id="c237a92ea9"><path d="M 113.289062 91.746094 L 261.789062 91.746094 L 261.789062 282.996094 L 113.289062 282.996094 Z M 113.289062 91.746094 " clip-rule="nonzero"/></clipPath></defs><g clip-path="url(#19360c99d0)"><path fill="#ffbd59" d="M 151.898438 212.011719 C 146.980469 210.402344 140.6875 208.335938 134.511719 206.847656 C 133.253906 206.5 130.398438 206.5 129.136719 208.566406 L 125.25 214.535156 C 124.90625 214.996094 124.449219 215.222656 123.992188 215.339844 C 122.847656 215.453125 121.589844 215.222656 120.675781 214.421875 C 118.160156 212.8125 108.4375 203.863281 102.722656 198.351562 C 97.003906 192.386719 88.3125 182.746094 86.480469 180.21875 C 85.796875 179.300781 85.453125 178.039062 85.566406 176.890625 C 85.679688 176.316406 85.910156 175.859375 86.367188 175.628906 L 92.3125 171.726562 C 93.6875 170.808594 94.371094 167.59375 94.03125 166.332031 C 92.886719 161.511719 91.398438 156.117188 88.996094 149.003906 C 88.425781 147.511719 86.136719 145.675781 82.480469 146.9375 C 77.5625 149.003906 72.988281 151.988281 69.097656 155.890625 C 67.957031 157.035156 66.925781 158.183594 66.011719 159.445312 C 65.78125 159.675781 65.667969 160.019531 65.667969 160.25 C 64.867188 174.597656 74.472656 193.878906 90.140625 209.484375 C 105.238281 225.324219 124.5625 235.539062 139.089844 235.539062 C 139.660156 235.539062 140.117188 235.539062 140.6875 235.539062 C 141.03125 235.539062 141.261719 235.421875 141.488281 235.191406 C 142.746094 234.160156 143.890625 233.128906 145.035156 232.09375 C 148.121094 228.996094 150.636719 225.4375 152.695312 221.652344 C 153.15625 220.617188 153.613281 219.699219 154.070312 218.667969 C 154.527344 217.058594 155.441406 213.15625 151.898438 212.011719 Z M 83.621094 149.460938 C 84.652344 149.117188 86.023438 149.347656 86.367188 150.035156 C 88.65625 157.035156 90.253906 162.316406 91.285156 167.023438 C 91.511719 167.824219 91.285156 168.972656 90.714844 169.433594 L 89.339844 170.351562 C 84.996094 164.496094 82.363281 157.609375 81.679688 150.378906 C 81.679688 150.378906 82.9375 149.808594 83.621094 149.460938 Z M 151.4375 217.519531 C 151.210938 218.207031 150.867188 218.78125 150.636719 219.355469 C 137.257812 217.175781 132.113281 213.386719 130.625 212.011719 L 131.65625 210.402344 C 132.226562 209.601562 133.253906 209.601562 134.054688 209.828125 C 139.886719 211.207031 146.179688 213.273438 150.980469 214.765625 C 151.78125 214.996094 151.78125 216.484375 151.4375 217.519531 Z M 151.4375 217.519531 " fill-opacity="1" fill-rule="nonzero"/></g><g clip-path="url(#b2a4d8e508)"><path fill="#ffbd59" d="M 108.554688 139.707031 C 107.753906 139.707031 107.179688 140.394531 107.179688 141.085938 C 107.179688 141.773438 107.867188 142.460938 108.554688 142.460938 C 136.34375 142.460938 158.757812 165.070312 158.757812 192.84375 C 158.757812 193.648438 159.445312 194.222656 160.128906 194.222656 C 160.816406 194.222656 161.503906 193.53125 161.503906 192.84375 C 161.617188 163.578125 137.832031 139.820312 108.554688 139.707031 Z M 108.554688 139.707031 " fill-opacity="1" fill-rule="nonzero"/></g><path fill="#ffbd59" d="M 133.371094 168.167969 C 140.003906 174.710938 143.664062 183.664062 143.664062 193.074219 C 143.664062 193.878906 144.347656 194.449219 145.035156 194.449219 C 145.722656 194.449219 146.40625 193.761719 146.40625 193.074219 C 146.40625 172.070312 129.367188 154.972656 108.4375 154.972656 C 107.636719 154.972656 107.066406 155.660156 107.066406 156.347656 C 107.066406 157.152344 107.636719 157.726562 108.324219 157.839844 C 108.324219 157.839844 108.4375 157.839844 108.4375 157.839844 C 117.816406 157.839844 126.738281 161.511719 133.371094 168.167969 Z M 133.371094 168.167969 " fill-opacity="1" fill-rule="nonzero"/><path fill="#ffbd59" d="M 108.554688 173.90625 C 119.074219 173.90625 127.652344 182.515625 127.652344 193.074219 C 127.652344 193.878906 128.339844 194.449219 129.023438 194.449219 C 129.710938 194.449219 130.398438 193.761719 130.398438 193.074219 C 130.398438 180.910156 120.5625 171.039062 108.4375 171.039062 C 107.636719 171.039062 107.066406 171.726562 107.066406 172.414062 C 107.066406 173.105469 107.753906 173.90625 108.554688 173.90625 Z M 108.554688 173.90625 " fill-opacity="1" fill-rule="nonzero"/><g clip-path="url(#2a4a88e6e2)"><path fill="#ffbd59" d="M 311.226562 159.503906 L 282.160156 159.503906 C 281.214844 148.144531 271.304688 139.621094 259.976562 140.570312 C 249.878906 141.421875 241.953125 149.375 241.101562 159.503906 L 212.125 159.503906 C 208.917969 159.503906 206.273438 162.15625 206.179688 165.375 L 206.179688 229.65625 C 206.179688 232.972656 208.824219 235.527344 212.125 235.621094 L 311.226562 235.621094 C 314.53125 235.621094 317.078125 232.972656 317.175781 229.65625 L 317.175781 165.375 C 317.078125 162.15625 314.4375 159.503906 311.226562 159.503906 Z M 209.578125 229.65625 L 209.578125 165.375 C 209.578125 165.183594 209.578125 164.996094 209.671875 164.804688 L 246.574219 197.46875 L 209.578125 230.132812 C 209.578125 230.035156 209.578125 229.847656 209.578125 229.65625 Z M 261.675781 181.753906 C 272.4375 181.753906 281.308594 173.515625 282.160156 162.722656 L 311.039062 162.722656 L 263.660156 204.570312 C 262.527344 205.609375 260.734375 205.609375 259.601562 204.570312 L 212.222656 162.816406 L 241.101562 162.816406 C 242.046875 173.515625 250.917969 181.753906 261.675781 181.753906 Z M 249.125 199.742188 L 257.523438 207.125 C 259.976562 209.207031 263.566406 209.207031 265.925781 207.125 L 274.324219 199.742188 L 311.132812 232.308594 L 212.222656 232.308594 Z M 276.777344 197.46875 L 313.777344 164.804688 C 313.777344 164.996094 313.871094 165.183594 313.871094 165.375 L 313.871094 229.65625 C 313.871094 229.847656 313.871094 230.035156 313.777344 230.226562 Z M 261.675781 143.789062 C 271.210938 143.789062 278.949219 151.550781 278.949219 161.113281 C 278.949219 170.675781 271.210938 178.4375 261.675781 178.4375 C 252.144531 178.4375 244.40625 170.675781 244.40625 161.113281 C 244.40625 151.550781 252.144531 143.789062 261.675781 143.789062 Z M 261.675781 143.789062 " fill-opacity="1" fill-rule="nonzero"/></g><path fill="#ffbd59" d="M 263.09375 149.753906 L 260.261719 149.753906 C 254.789062 149.753906 250.351562 154.203125 250.351562 159.695312 L 250.351562 162.535156 C 250.351562 168.023438 254.789062 172.472656 260.261719 172.472656 L 261.867188 172.472656 C 262.808594 172.472656 263.46875 171.71875 263.46875 170.769531 C 263.46875 169.824219 262.714844 169.066406 261.867188 169.066406 L 260.261719 169.066406 C 256.582031 169.066406 253.65625 166.132812 253.65625 162.4375 L 253.65625 159.597656 C 253.65625 155.90625 256.582031 152.972656 260.261719 152.972656 L 263.09375 152.972656 C 266.773438 152.972656 269.699219 155.90625 269.699219 159.597656 L 269.699219 164.617188 C 269.699219 165.089844 269.320312 165.46875 268.851562 165.46875 L 267.8125 165.46875 C 267.339844 165.46875 266.960938 165.089844 266.960938 164.617188 L 266.960938 159.976562 C 266.960938 157.609375 265.074219 155.71875 262.714844 155.71875 L 260.734375 155.71875 C 258.375 155.71875 256.484375 157.609375 256.484375 159.976562 L 256.484375 161.964844 C 256.484375 164.332031 258.375 166.226562 260.734375 166.226562 L 264.035156 166.226562 C 264.699219 167.742188 266.113281 168.78125 267.8125 168.78125 L 268.851562 168.78125 C 271.117188 168.78125 273.003906 166.886719 273.003906 164.617188 L 273.003906 159.597656 C 273.003906 154.203125 268.566406 149.753906 263.09375 149.753906 Z M 259.789062 162.15625 L 259.789062 160.167969 C 259.789062 159.695312 260.167969 159.21875 260.734375 159.21875 L 262.714844 159.21875 C 263.1875 159.21875 263.660156 159.597656 263.660156 160.167969 L 263.660156 163.101562 L 260.734375 163.101562 C 260.167969 163.101562 259.789062 162.628906 259.789062 162.15625 Z M 259.789062 162.15625 " fill-opacity="1" fill-rule="nonzero"/><g clip-path="url(#c237a92ea9)"><path fill="#8c52ff" d="M 261.789062 268.527344 C 261.789062 217.507812 228.519531 176.171875 187.539062 176.171875 C 146.558594 176.171875 113.289062 217.507812 113.289062 268.527344 C 113.289062 276.480469 146.558594 282.96875 187.539062 282.96875 C 228.519531 282.96875 261.789062 276.480469 261.789062 268.527344 Z M 187.539062 91.773438 C 209.894531 91.773438 228 109.84375 228 132.15625 C 228 154.464844 209.894531 172.539062 187.539062 172.539062 C 165.1875 172.539062 147.078125 154.464844 147.078125 132.15625 C 147.078125 109.84375 165.1875 91.773438 187.539062 91.773438 Z M 187.539062 91.773438 " fill-opacity="1" fill-rule="evenodd"/></g></svg>