<svg xmlns="http://www.w3.org/2000/svg" xmlns:xlink="http://www.w3.org/1999/xlink" width="338" zoomAndPan="magnify" viewBox="0 0 253.5 191.999996" height="256" preserveAspectRatio="xMidYMid meet" version="1.0"><defs><clipPath id="f2772c56c3"><path d="M 1 55 L 91 55 L 91 144.3125 L 1 144.3125 Z M 1 55 " clip-rule="nonzero"/></clipPath><clipPath id="4759af6fa6"><path d="M 42 48.3125 L 97.117188 48.3125 L 97.117188 103 L 42 103 Z M 42 48.3125 " clip-rule="nonzero"/></clipPath><clipPath id="d2774237a2"><path d="M 141.300781 49 L 253 49 L 253 144.3125 L 141.300781 144.3125 Z M 141.300781 49 " clip-rule="nonzero"/></clipPath><clipPath id="7e4b3c68fd"><path d="M 48.789062 0.433594 L 197.289062 0.433594 L 197.289062 191.683594 L 48.789062 191.683594 Z M 48.789062 0.433594 " clip-rule="nonzero"/></clipPath></defs><g clip-path="url(#f2772c56c3)"><path fill="#ffbd59" d="M 87.398438 120.699219 C 82.480469 119.09375 76.1875 117.027344 70.011719 115.535156 C 68.753906 115.191406 65.898438 115.191406 64.636719 117.257812 L 60.75 123.222656 C 60.40625 123.683594 59.949219 123.914062 59.492188 124.027344 C 58.347656 124.140625 57.089844 123.914062 56.175781 123.109375 C 53.660156 121.503906 43.9375 112.550781 38.222656 107.042969 C 32.503906 101.074219 23.8125 91.433594 21.980469 88.910156 C 21.296875 87.992188 20.953125 86.726562 21.066406 85.582031 C 21.179688 85.007812 21.410156 84.546875 21.867188 84.316406 L 27.8125 80.417969 C 29.1875 79.496094 29.871094 76.285156 29.53125 75.023438 C 28.386719 70.203125 26.898438 64.808594 24.496094 57.691406 C 23.925781 56.199219 21.636719 54.363281 17.980469 55.625 C 13.0625 57.691406 8.488281 60.675781 4.597656 64.578125 C 3.457031 65.726562 2.425781 66.875 1.511719 68.136719 C 1.28125 68.367188 1.167969 68.710938 1.167969 68.941406 C 0.367188 83.285156 9.972656 102.566406 25.640625 118.175781 C 40.738281 134.011719 60.0625 144.226562 74.589844 144.226562 C 75.160156 144.226562 75.617188 144.226562 76.1875 144.226562 C 76.53125 144.226562 76.761719 144.113281 76.988281 143.882812 C 78.246094 142.847656 79.390625 141.816406 80.535156 140.785156 C 83.621094 137.683594 86.136719 134.128906 88.195312 130.339844 C 88.65625 129.308594 89.113281 128.386719 89.570312 127.355469 C 90.027344 125.75 90.941406 121.847656 87.398438 120.699219 Z M 19.121094 58.152344 C 20.152344 57.808594 21.523438 58.035156 21.867188 58.726562 C 24.15625 65.726562 25.753906 71.003906 26.785156 75.710938 C 27.011719 76.515625 26.785156 77.660156 26.214844 78.121094 L 24.839844 79.039062 C 20.496094 73.1875 17.863281 66.300781 17.179688 59.070312 C 17.179688 59.070312 18.4375 58.496094 19.121094 58.152344 Z M 86.9375 126.207031 C 86.710938 126.898438 86.367188 127.46875 86.136719 128.042969 C 72.757812 125.863281 67.613281 122.078125 66.125 120.699219 L 67.15625 119.09375 C 67.726562 118.289062 68.753906 118.289062 69.554688 118.519531 C 75.386719 119.894531 81.679688 121.960938 86.480469 123.453125 C 87.28125 123.683594 87.28125 125.175781 86.9375 126.207031 Z M 86.9375 126.207031 " fill-opacity="1" fill-rule="nonzero"/></g><g clip-path="url(#4759af6fa6)"><path fill="#ffbd59" d="M 44.054688 48.394531 C 43.253906 48.394531 42.679688 49.085938 42.679688 49.773438 C 42.679688 50.460938 43.367188 51.152344 44.054688 51.152344 C 71.84375 51.152344 94.257812 73.757812 94.257812 101.535156 C 94.257812 102.335938 94.945312 102.910156 95.628906 102.910156 C 96.316406 102.910156 97.003906 102.222656 97.003906 101.535156 C 97.117188 72.269531 73.332031 48.511719 44.054688 48.394531 Z M 44.054688 48.394531 " fill-opacity="1" fill-rule="nonzero"/></g><path fill="#ffbd59" d="M 68.871094 76.859375 C 75.503906 83.398438 79.164062 92.351562 79.164062 101.761719 C 79.164062 102.566406 79.847656 103.140625 80.535156 103.140625 C 81.222656 103.140625 81.90625 102.453125 81.90625 101.761719 C 81.90625 80.761719 64.867188 63.660156 43.9375 63.660156 C 43.136719 63.660156 42.566406 64.347656 42.566406 65.039062 C 42.566406 65.839844 43.136719 66.414062 43.824219 66.53125 C 43.824219 66.53125 43.9375 66.53125 43.9375 66.53125 C 53.316406 66.53125 62.238281 70.203125 68.871094 76.859375 Z M 68.871094 76.859375 " fill-opacity="1" fill-rule="nonzero"/><path fill="#ffbd59" d="M 44.054688 82.597656 C 54.574219 82.597656 63.152344 91.203125 63.152344 101.761719 C 63.152344 102.566406 63.839844 103.140625 64.523438 103.140625 C 65.210938 103.140625 65.898438 102.453125 65.898438 101.761719 C 65.898438 89.597656 56.0625 79.726562 43.9375 79.726562 C 43.136719 79.726562 42.566406 80.417969 42.566406 81.105469 C 42.566406 81.792969 43.253906 82.597656 44.054688 82.597656 Z M 44.054688 82.597656 " fill-opacity="1" fill-rule="nonzero"/><g clip-path="url(#d2774237a2)"><path fill="#ffbd59" d="M 246.726562 68.191406 L 217.660156 68.191406 C 216.714844 56.832031 206.804688 48.3125 195.476562 49.257812 C 185.378906 50.109375 177.453125 58.0625 176.601562 68.191406 L 147.625 68.191406 C 144.417969 68.191406 141.773438 70.84375 141.679688 74.0625 L 141.679688 138.347656 C 141.679688 141.660156 144.324219 144.214844 147.625 144.3125 L 246.726562 144.3125 C 250.03125 144.3125 252.578125 141.660156 252.675781 138.347656 L 252.675781 74.0625 C 252.578125 70.84375 249.9375 68.191406 246.726562 68.191406 Z M 145.078125 138.347656 L 145.078125 74.0625 C 145.078125 73.875 145.078125 73.683594 145.171875 73.496094 L 182.074219 106.15625 L 145.078125 138.820312 C 145.078125 138.726562 145.078125 138.535156 145.078125 138.347656 Z M 197.175781 90.441406 C 207.9375 90.441406 216.808594 82.203125 217.660156 71.410156 L 246.539062 71.410156 L 199.160156 113.257812 C 198.027344 114.300781 196.234375 114.300781 195.101562 113.257812 L 147.722656 71.507812 L 176.601562 71.507812 C 177.546875 82.203125 186.417969 90.441406 197.175781 90.441406 Z M 184.625 108.429688 L 193.023438 115.8125 C 195.476562 117.898438 199.066406 117.898438 201.425781 115.8125 L 209.824219 108.429688 L 246.632812 140.996094 L 147.722656 140.996094 Z M 212.277344 106.15625 L 249.277344 73.496094 C 249.277344 73.683594 249.371094 73.875 249.371094 74.0625 L 249.371094 138.347656 C 249.371094 138.535156 249.371094 138.726562 249.277344 138.914062 Z M 197.175781 52.476562 C 206.710938 52.476562 214.449219 60.242188 214.449219 69.800781 C 214.449219 79.363281 206.710938 87.128906 197.175781 87.128906 C 187.644531 87.128906 179.90625 79.363281 179.90625 69.800781 C 179.90625 60.242188 187.644531 52.476562 197.175781 52.476562 Z M 197.175781 52.476562 " fill-opacity="1" fill-rule="nonzero"/></g><path fill="#ffbd59" d="M 198.59375 58.441406 L 195.761719 58.441406 C 190.289062 58.441406 185.851562 62.890625 185.851562 68.382812 L 185.851562 71.222656 C 185.851562 76.714844 190.289062 81.164062 195.761719 81.164062 L 197.367188 81.164062 C 198.308594 81.164062 198.96875 80.40625 198.96875 79.460938 C 198.96875 78.511719 198.214844 77.753906 197.367188 77.753906 L 195.761719 77.753906 C 192.082031 77.753906 189.15625 74.820312 189.15625 71.128906 L 189.15625 68.289062 C 189.15625 64.59375 192.082031 61.660156 195.761719 61.660156 L 198.59375 61.660156 C 202.273438 61.660156 205.199219 64.59375 205.199219 68.289062 L 205.199219 73.304688 C 205.199219 73.777344 204.820312 74.15625 204.351562 74.15625 L 203.3125 74.15625 C 202.839844 74.15625 202.460938 73.777344 202.460938 73.304688 L 202.460938 68.667969 C 202.460938 66.300781 200.574219 64.40625 198.214844 64.40625 L 196.234375 64.40625 C 193.875 64.40625 191.984375 66.300781 191.984375 68.667969 L 191.984375 70.65625 C 191.984375 73.019531 193.875 74.914062 196.234375 74.914062 L 199.535156 74.914062 C 200.199219 76.429688 201.613281 77.472656 203.3125 77.472656 L 204.351562 77.472656 C 206.617188 77.472656 208.503906 75.578125 208.503906 73.304688 L 208.503906 68.289062 C 208.503906 62.890625 204.066406 58.441406 198.59375 58.441406 Z M 195.289062 70.84375 L 195.289062 68.855469 C 195.289062 68.382812 195.667969 67.910156 196.234375 67.910156 L 198.214844 67.910156 C 198.6875 67.910156 199.160156 68.289062 199.160156 68.855469 L 199.160156 71.789062 L 196.234375 71.789062 C 195.667969 71.789062 195.289062 71.316406 195.289062 70.84375 Z M 195.289062 70.84375 " fill-opacity="1" fill-rule="nonzero"/><g clip-path="url(#7e4b3c68fd)"><path fill="#8c52ff" d="M 197.289062 177.214844 C 197.289062 126.195312 164.019531 84.859375 123.039062 84.859375 C 82.058594 84.859375 48.789062 126.195312 48.789062 177.214844 C 48.789062 185.171875 82.058594 191.65625 123.039062 191.65625 C 164.019531 191.65625 197.289062 185.171875 197.289062 177.214844 Z M 123.039062 0.460938 C 145.394531 0.460938 163.5 18.535156 163.5 40.84375 C 163.5 63.15625 145.394531 81.226562 123.039062 81.226562 C 100.6875 81.226562 82.578125 63.15625 82.578125 40.84375 C 82.578125 18.535156 100.6875 0.460938 123.039062 0.460938 Z M 123.039062 0.460938 " fill-opacity="1" fill-rule="evenodd"/></g></svg>